<svg width="1920" height="1080" xmlns="http://www.w3.org/2000/svg">
  <defs>
    <linearGradient id="skyGradient" x1="0%" y1="0%" x2="0%" y2="100%">
      <stop offset="0%" style="stop-color:#87CEEB;stop-opacity:1" />
      <stop offset="100%" style="stop-color:#E0F6FF;stop-opacity:1" />
    </linearGradient>
    <linearGradient id="mountainGradient" x1="0%" y1="0%" x2="0%" y2="100%">
      <stop offset="0%" style="stop-color:#8B7355;stop-opacity:1" />
      <stop offset="100%" style="stop-color:#A0522D;stop-opacity:1" />
    </linearGradient>
    <linearGradient id="grassGradient" x1="0%" y1="0%" x2="0%" y2="100%">
      <stop offset="0%" style="stop-color:#90EE90;stop-opacity:1" />
      <stop offset="100%" style="stop-color:#228B22;stop-opacity:1" />
    </linearGradient>
  </defs>
  
  <!-- Небо -->
  <rect width="100%" height="60%" fill="url(#skyGradient)"/>
  
  <!-- Облака -->
  <ellipse cx="200" cy="150" rx="80" ry="40" fill="white" opacity="0.8"/>
  <ellipse cx="250" cy="140" rx="60" ry="30" fill="white" opacity="0.8"/>
  <ellipse cx="300" cy="150" rx="70" ry="35" fill="white" opacity="0.8"/>
  
  <ellipse cx="600" cy="120" rx="90" ry="45" fill="white" opacity="0.7"/>
  <ellipse cx="650" cy="110" rx="70" ry="35" fill="white" opacity="0.7"/>
  <ellipse cx="700" cy="120" rx="80" ry="40" fill="white" opacity="0.7"/>
  
  <ellipse cx="1000" cy="180" rx="75" ry="38" fill="white" opacity="0.6"/>
  <ellipse cx="1050" cy="170" rx="55" ry="28" fill="white" opacity="0.6"/>
  <ellipse cx="1100" cy="180" rx="65" ry="32" fill="white" opacity="0.6"/>
  
  <!-- Горы на заднем плане -->
  <polygon points="0,400 200,200 400,400" fill="url(#mountainGradient)"/>
  <polygon points="300,400 500,150 700,400" fill="url(#mountainGradient)"/>
  <polygon points="600,400 800,180 1000,400" fill="url(#mountainGradient)"/>
  <polygon points="900,400 1100,160 1300,400" fill="url(#mountainGradient)"/>
  <polygon points="1200,400 1400,190 1600,400" fill="url(#mountainGradient)"/>
  <polygon points="1500,400 1700,170 1920,400" fill="url(#mountainGradient)"/>
  
  <!-- Холмы -->
  <ellipse cx="400" cy="500" rx="300" ry="100" fill="url(#grassGradient)"/>
  <ellipse cx="800" cy="520" rx="250" ry="80" fill="url(#grassGradient)"/>
  <ellipse cx="1200" cy="480" rx="350" ry="120" fill="url(#grassGradient)"/>
  <ellipse cx="1600" cy="510" rx="280" ry="90" fill="url(#grassGradient)"/>
  
  <!-- Дом -->
  <rect x="800" y="400" width="120" height="80" fill="#DEB887"/>
  <polygon points="800,400 860,350 920,400" fill="#8B4513"/>
  <rect x="820" y="420" width="20" height="30" fill="#654321"/>
  <rect x="850" y="430" width="15" height="15" fill="#87CEEB"/>
  <rect x="870" y="430" width="15" height="15" fill="#87CEEB"/>
  
  <!-- Деревья -->
  <ellipse cx="300" cy="450" rx="25" ry="40" fill="#228B22"/>
  <rect x="295" y="450" width="10" height="30" fill="#8B4513"/>
  
  <ellipse cx="500" cy="460" rx="30" ry="50" fill="#228B22"/>
  <rect x="495" y="460" width="10" height="40" fill="#8B4513"/>
  
  <ellipse cx="1100" cy="440" rx="28" ry="45" fill="#228B22"/>
  <rect x="1095" y="440" width="10" height="35" fill="#8B4513"/>
  
  <ellipse cx="1400" cy="470" rx="32" ry="48" fill="#228B22"/>
  <rect x="1395" y="470" width="10" height="38" fill="#8B4513"/>
  
  <!-- Трава на переднем плане -->
  <rect width="100%" height="40%" y="60%" fill="url(#grassGradient)"/>
  
  <!-- Детали травы -->
  <path d="M 50,650 Q 60,630 70,650 Q 80,630 90,650" stroke="#32CD32" stroke-width="2" fill="none"/>
  <path d="M 150,660 Q 160,640 170,660 Q 180,640 190,660" stroke="#32CD32" stroke-width="2" fill="none"/>
  <path d="M 250,645 Q 260,625 270,645 Q 280,625 290,645" stroke="#32CD32" stroke-width="2" fill="none"/>
  <path d="M 350,655 Q 360,635 370,655 Q 380,635 390,655" stroke="#32CD32" stroke-width="2" fill="none"/>
  <path d="M 450,650 Q 460,630 470,650 Q 480,630 490,650" stroke="#32CD32" stroke-width="2" fill="none"/>
  <path d="M 550,660 Q 560,640 570,660 Q 580,640 590,660" stroke="#32CD32" stroke-width="2" fill="none"/>
  <path d="M 650,645 Q 660,625 670,645 Q 680,625 690,645" stroke="#32CD32" stroke-width="2" fill="none"/>
  <path d="M 750,655 Q 760,635 770,655 Q 780,635 790,655" stroke="#32CD32" stroke-width="2" fill="none"/>
  <path d="M 850,650 Q 860,630 870,650 Q 880,630 890,650" stroke="#32CD32" stroke-width="2" fill="none"/>
  <path d="M 950,660 Q 960,640 970,660 Q 980,640 990,660" stroke="#32CD32" stroke-width="2" fill="none"/>
  <path d="M 1050,645 Q 1060,625 1070,645 Q 1080,625 1090,645" stroke="#32CD32" stroke-width="2" fill="none"/>
  <path d="M 1150,655 Q 1160,635 1170,655 Q 1180,635 1190,655" stroke="#32CD32" stroke-width="2" fill="none"/>
  <path d="M 1250,650 Q 1260,630 1270,650 Q 1280,630 1290,650" stroke="#32CD32" stroke-width="2" fill="none"/>
  <path d="M 1350,660 Q 1360,640 1370,660 Q 1380,640 1390,660" stroke="#32CD32" stroke-width="2" fill="none"/>
  <path d="M 1450,645 Q 1460,625 1470,645 Q 1480,625 1490,645" stroke="#32CD32" stroke-width="2" fill="none"/>
  <path d="M 1550,655 Q 1560,635 1570,655 Q 1580,635 1590,655" stroke="#32CD32" stroke-width="2" fill="none"/>
  <path d="M 1650,650 Q 1660,630 1670,650 Q 1680,630 1690,650" stroke="#32CD32" stroke-width="2" fill="none"/>
  <path d="M 1750,660 Q 1760,640 1770,660 Q 1780,640 1790,660" stroke="#32CD32" stroke-width="2" fill="none"/>
  <path d="M 1850,645 Q 1860,625 1870,645 Q 1880,625 1890,645" stroke="#32CD32" stroke-width="2" fill="none"/>
</svg>
